<svg width="20" height="22" viewBox="0 0 20 22" fill="none" xmlns="http://www.w3.org/2000/svg">
<path d="M5.27539 15.9348C5.27539 16.4376 5.64844 16.8479 6.10742 16.8479H7.05859V19.4346C7.05859 20.0899 7.53711 20.6249 8.125 20.6249C8.71484 20.6249 9.19141 20.0921 9.19141 19.4346V16.8458H10.8516V19.4325C10.8516 20.0878 11.3301 20.6227 11.918 20.6227C12.5078 20.6227 12.9844 20.0899 12.9844 19.4325V16.8458H13.9355C14.3945 16.8458 14.7676 16.4354 14.7676 15.9327V7.44207H5.27539V15.9348ZM12.25 3.04207L13.127 1.64558C13.1777 1.56394 13.166 1.45437 13.0977 1.40066C13.0293 1.3491 12.9316 1.37488 12.8809 1.45652L11.9707 2.90886C11.3711 2.6489 10.7031 2.50496 10.002 2.50496C9.30078 2.50496 8.63281 2.6489 8.0332 2.90886L7.12305 1.45867C7.07227 1.37703 6.97461 1.3491 6.90625 1.40281C6.83789 1.45437 6.82617 1.56179 6.87695 1.64773L7.75391 3.04422C6.35937 3.7575 5.38281 5.10886 5.25781 6.68797H14.75C14.6211 5.10672 13.6426 3.75535 12.25 3.04207ZM7.99805 5.24422C7.89413 5.24422 7.79256 5.21032 7.70616 5.14682C7.61976 5.08331 7.55241 4.99305 7.51265 4.88745C7.47288 4.78185 7.46248 4.66565 7.48275 4.55354C7.50302 4.44143 7.55306 4.33845 7.62654 4.25763C7.70002 4.1768 7.79363 4.12176 7.89555 4.09946C7.99746 4.07716 8.1031 4.08861 8.19911 4.13235C8.29511 4.17609 8.37716 4.25017 8.43489 4.34521C8.49262 4.44025 8.52344 4.55198 8.52344 4.66629C8.52308 4.81944 8.46761 4.96621 8.36916 5.07451C8.2707 5.1828 8.13728 5.24382 7.99805 5.24422ZM12.0684 5.24422C11.9644 5.24422 11.8629 5.21032 11.7765 5.14682C11.6901 5.08331 11.6227 4.99305 11.583 4.88745C11.5432 4.78185 11.5328 4.66565 11.5531 4.55354C11.5733 4.44143 11.6234 4.33845 11.6969 4.25763C11.7703 4.1768 11.8639 4.12176 11.9659 4.09946C12.0678 4.07716 12.1734 4.08861 12.2694 4.13235C12.3654 4.17609 12.4475 4.25017 12.5052 4.34521C12.5629 4.44025 12.5937 4.55198 12.5937 4.66629C12.5934 4.81944 12.5379 4.96621 12.4395 5.07451C12.341 5.1828 12.2076 5.24382 12.0684 5.24422ZM16.4316 7.40769C15.8418 7.40769 15.3652 7.94051 15.3652 8.59793V13.2471C15.3652 13.9024 15.8437 14.4374 16.4316 14.4374C17.0215 14.4374 17.498 13.9046 17.498 13.2471V8.59578C17.5 7.93836 17.0234 7.40769 16.4316 7.40769ZM3.56836 7.40769C2.97852 7.40769 2.50195 7.94051 2.50195 8.59793V13.2471C2.50195 13.9024 2.98047 14.4374 3.56836 14.4374C4.1582 14.4374 4.63477 13.9046 4.63477 13.2471V8.59578C4.63477 7.93836 4.15625 7.40769 3.56836 7.40769Z" fill="black"/>
</svg>
