<svg width="16" height="17" viewBox="0 0 16 17" fill="none" xmlns="http://www.w3.org/2000/svg">
<g clip-path="url(#clip0_201_9356)">
<path d="M2.4375 3.06773C2.4375 1.41446 3.77774 0.0742188 5.43103 0.0742188H10.5675C12.2208 0.0742188 13.5611 1.41446 13.5611 3.06773C13.5611 4.11459 13.0237 5.03597 12.2097 5.571C13.0237 6.10606 13.5611 7.02741 13.5611 8.07428C13.5611 9.72756 12.2208 11.0678 10.5675 11.0678H10.5025C9.72747 11.0678 9.02119 10.7732 8.48956 10.29V13.0482C8.48956 14.7235 7.11428 16.0742 5.44716 16.0742C3.798 16.0742 2.4375 14.7381 2.4375 13.0807C2.4375 12.0339 2.97483 11.1126 3.78873 10.5775C2.97483 10.0424 2.4375 9.12109 2.4375 8.07428C2.4375 7.02741 2.97488 6.10606 3.78883 5.571C2.97488 5.03597 2.4375 4.11459 2.4375 3.06773ZM7.509 6.06131H5.43103C4.31929 6.06131 3.41806 6.96256 3.41806 8.07428C3.41806 9.18172 4.31234 10.0803 5.41816 10.0872C5.42244 10.0872 5.42672 10.0872 5.43103 10.0872H7.509V6.06131ZM8.48956 8.07428C8.48956 9.186 9.39078 10.0872 10.5025 10.0872H10.5675C11.6793 10.0872 12.5805 9.186 12.5805 8.07428C12.5805 6.96256 11.6793 6.06131 10.5675 6.06131H10.5025C9.39078 6.06131 8.48956 6.96256 8.48956 8.07428ZM5.43103 11.0678C5.42672 11.0678 5.42244 11.0678 5.41816 11.0678C4.31234 11.0747 3.41806 11.9733 3.41806 13.0807C3.41806 14.1883 4.33133 15.0937 5.44716 15.0937C6.58097 15.0937 7.509 14.1738 7.509 13.0482V11.0678H5.43103ZM5.43103 1.05477C4.31929 1.05477 3.41806 1.95601 3.41806 3.06773C3.41806 4.17947 4.31929 5.08069 5.43103 5.08069H7.509V1.05477H5.43103ZM8.48956 5.08069H10.5675C11.6793 5.08069 12.5805 4.17947 12.5805 3.06773C12.5805 1.95601 11.6793 1.05477 10.5675 1.05477H8.48956V5.08069Z" fill="black"/>
</g>
<defs>
<clipPath id="clip0_201_9356">
<rect width="16" height="16" fill="white" transform="translate(0 0.0742188)"/>
</clipPath>
</defs>
</svg>
