<svg width="21" height="20" viewBox="0 0 21 20" fill="none" xmlns="http://www.w3.org/2000/svg">
<g clip-path="url(#clip0_228_10530)">
<path d="M10.1851 0C4.66006 0 0.185059 4.475 0.185059 10C0.185059 14.425 3.04756 18.1625 7.02256 19.4875C7.52256 19.575 7.71006 19.275 7.71006 19.0125C7.71006 18.775 7.69756 17.9875 7.69756 17.15C5.18506 17.6125 4.53506 16.5375 4.33506 15.975C4.22256 15.6875 3.73506 14.8 3.31006 14.5625C2.96006 14.375 2.46006 13.9125 3.29756 13.9C4.08506 13.8875 4.64756 14.625 4.83506 14.925C5.73506 16.4375 7.17256 16.0125 7.74756 15.75C7.83506 15.1 8.09756 14.6625 8.38506 14.4125C6.16006 14.1625 3.83506 13.3 3.83506 9.475C3.83506 8.3875 4.22256 7.4875 4.86006 6.7875C4.76006 6.5375 4.41006 5.5125 4.96006 4.1375C4.96006 4.1375 5.79756 3.875 7.71006 5.1625C8.51006 4.9375 9.36006 4.825 10.2101 4.825C11.0601 4.825 11.9101 4.9375 12.7101 5.1625C14.6226 3.8625 15.4601 4.1375 15.4601 4.1375C16.0101 5.5125 15.6601 6.5375 15.5601 6.7875C16.1976 7.4875 16.5851 8.375 16.5851 9.475C16.5851 13.3125 14.2476 14.1625 12.0226 14.4125C12.3851 14.725 12.6976 15.325 12.6976 16.2625C12.6976 17.6 12.6851 18.675 12.6851 19.0125C12.6851 19.275 12.8726 19.5875 13.3726 19.4875C15.358 18.8178 17.0834 17.5421 18.3056 15.84C19.5277 14.138 20.1851 12.0954 20.1851 10C20.1851 4.475 15.7101 0 10.1851 0Z" fill="black"/>
</g>
<defs>
<clipPath id="clip0_228_10530">
<rect width="20" height="20" fill="white" transform="translate(0.185059)"/>
</clipPath>
</defs>
</svg>
