<svg width="20" height="20" viewBox="0 0 20 20" fill="none" xmlns="http://www.w3.org/2000/svg">
<path d="M3.30833 3.50646C3.93 4.01146 4.16333 3.97313 5.33167 3.89479L16.3442 3.23396C16.5775 3.23396 16.3833 3.00063 16.3058 2.96229L14.4758 1.63979C14.1258 1.36813 13.6583 1.05646 12.7633 1.13396L2.10083 1.91229C1.7125 1.95063 1.63417 2.14563 1.78917 2.30063L3.30833 3.50646ZM3.96917 6.07313V17.6598C3.96917 18.2823 4.28 18.5156 4.98083 18.4765L17.0833 17.7765C17.7842 17.7381 17.8625 17.3098 17.8625 16.804V5.29479C17.8625 4.78979 17.6683 4.51729 17.2392 4.55563L4.59167 5.29479C4.125 5.33396 3.96917 5.56813 3.96917 6.07313ZM15.9167 6.69396C15.9942 7.04396 15.9167 7.39396 15.5667 7.43396L14.9833 7.55063V16.104C14.4767 16.3765 14.01 16.5323 13.6208 16.5323C12.9975 16.5323 12.8417 16.3373 12.375 15.7548L8.56083 9.76646V15.5598L9.7675 15.8331C9.7675 15.8331 9.7675 16.5331 8.79417 16.5331L6.10917 16.6881C6.03167 16.5331 6.10917 16.144 6.38167 16.0665L7.08167 15.8723V8.21146L6.11083 8.13313C6.0325 7.78313 6.2275 7.27813 6.77167 7.23896L9.65167 7.04479L13.6217 13.1106V7.74396L12.6092 7.62813C12.5317 7.19979 12.8425 6.88896 13.2317 6.85063L15.9167 6.69396ZM1.20583 0.862293L12.2975 0.0456266C13.6592 -0.07104 14.01 0.00645995 14.8658 0.62896L18.4067 3.11729C18.99 3.54479 19.185 3.66146 19.185 4.12813V17.7765C19.185 18.6315 18.8742 19.1381 17.785 19.2148L4.90333 19.9931C4.08667 20.0323 3.69667 19.9156 3.26833 19.3706L0.660833 15.9873C0.194167 15.3648 0 14.899 0 14.354V2.22229C0 1.52313 0.311667 0.93896 1.20583 0.862293Z" fill="black"/>
</svg>
