<svg width="397" height="171" viewBox="0 0 397 171" fill="none" xmlns="http://www.w3.org/2000/svg">
<path d="M2.5 168.5V86.7174V4.93483H43.1144C66.7761 4.93483 85.5933 10.3691 98.4287 19.9269C111.183 29.4238 118.22 43.1214 118.22 60.2246C118.22 73.3067 112.481 86.3792 103.713 96.1948C94.9297 106.027 83.37 112.312 71.9579 112.312C63.5661 112.312 57.3015 113.474 53.5485 118.689C51.7445 121.196 50.6957 124.415 50.0763 128.327C49.4557 132.246 49.2372 137.062 49.2372 142.906C49.2372 149.141 49.0549 153.84 48.4627 157.425C47.8718 161.001 46.9152 163.184 45.5878 164.625C44.2835 166.042 42.3429 167.043 39.1344 167.669C35.888 168.301 31.6073 168.5 25.8686 168.5H2.5ZM324.873 7.45415L325.177 4.97267L324.874 7.45416C352.287 10.8085 369.286 18.8097 379.222 32.1357C386.498 41.8954 391.505 58.5771 393.366 76.6489C395.221 94.6709 393.896 113.578 388.94 127.604C387.294 132.26 383.656 137.184 378.424 141.994C373.217 146.783 366.564 151.338 359.106 155.284C344.159 163.193 326.282 168.5 310.855 168.5H287.055V85.5V2.82469L324.873 7.45415ZM114.949 161.47C114.785 161.354 114.681 161.264 114.616 161.2C114.667 160.797 114.831 159.987 115.21 158.662C115.655 157.108 116.321 155.082 117.195 152.627C118.942 147.724 121.478 141.218 124.621 133.564C130.904 118.26 139.579 98.4453 149.125 77.8223C158.658 57.2287 168.16 39.1201 175.777 26.5385C179.596 20.2319 182.891 15.3953 185.444 12.3375C186.673 10.8661 187.632 9.92544 188.314 9.42079C188.579 9.74697 188.899 10.1771 189.277 10.7192C190.156 11.981 191.263 13.7311 192.573 15.9256C195.189 20.3077 198.539 26.3358 202.367 33.4947C210.02 47.8053 219.534 66.5392 228.821 85.4468C238.108 104.354 247.156 123.412 253.878 138.369C257.24 145.851 260.01 152.284 261.935 157.15C262.899 159.586 263.639 161.598 264.134 163.138C264.312 163.692 264.454 164.17 264.562 164.575C263.706 164.819 262.457 165.079 260.795 165.342C256.965 165.949 251.353 166.505 244.345 166.976C230.35 167.916 211.007 168.5 189.703 168.5C166.193 168.5 146.906 167.56 133.538 165.911C126.833 165.084 121.737 164.092 118.371 162.997C116.672 162.444 115.573 161.915 114.949 161.47ZM114.533 161.11C114.523 161.097 114.52 161.09 114.521 161.09C114.522 161.091 114.526 161.097 114.533 161.11Z" stroke="black" stroke-width="5"/>
</svg>
