<svg width="414" height="179" viewBox="0 0 414 179" fill="none" xmlns="http://www.w3.org/2000/svg">
<path d="M2.5 161.659V83.248V4.83742H44.5636C69.0652 4.83742 88.563 10.0657 101.859 19.2609C115.06 28.391 122.278 41.5051 122.278 57.8151C122.278 70.2853 116.386 82.7909 107.324 92.212C98.2578 101.639 86.2724 107.718 74.3766 107.718C65.7449 107.718 59.3388 108.818 55.4696 113.811C53.5874 116.241 52.4923 119.365 51.8473 123.148C51.2021 126.933 50.9763 131.573 50.9763 137.188C50.9763 143.173 50.7875 147.663 50.1798 151.08C49.5757 154.476 48.6027 156.536 47.2457 157.905C45.8912 159.271 43.8566 160.248 40.4988 160.856C37.1175 161.468 32.6711 161.659 26.7382 161.659H2.5ZM335.825 7.25772L336.108 4.77372L335.825 7.25773C364.215 10.4841 381.822 18.1877 392.091 30.9805L394.04 29.4155C409.896 49.1667 415.03 95.4925 404.45 123.299L402.114 122.409C402.114 122.41 402.114 122.41 402.114 122.41C400.428 126.838 396.685 131.554 391.27 136.179C385.885 140.779 379.001 145.156 371.283 148.949C355.818 156.549 337.303 161.659 321.303 161.659H296.62V82.0793V2.80034L335.825 7.25772ZM118.693 154.88C118.563 154.794 118.469 154.723 118.401 154.667C118.422 154.542 118.451 154.388 118.492 154.203C118.596 153.735 118.759 153.133 118.988 152.39C119.445 150.905 120.132 148.965 121.035 146.611C122.838 141.908 125.458 135.666 128.706 128.319C135.199 113.631 144.164 94.6118 154.03 74.8157C163.881 55.0504 173.7 37.6717 181.57 25.599C185.514 19.5475 188.918 14.9088 191.553 11.9771C192.887 10.4935 193.916 9.56906 194.635 9.10047C194.649 9.09102 194.663 9.0819 194.677 9.07309C194.965 9.3951 195.325 9.83994 195.759 10.4186C196.666 11.6271 197.809 13.3046 199.162 15.41C201.864 19.6141 205.325 25.3987 209.282 32.2703C217.191 46.0062 227.024 63.9889 236.622 82.1389C246.22 100.289 255.571 118.582 262.518 132.938C265.993 140.12 268.855 146.293 270.843 150.959C271.838 153.296 272.601 155.223 273.11 156.694C273.267 157.146 273.395 157.544 273.498 157.888C272.6 158.124 271.306 158.374 269.601 158.624C265.631 159.208 259.822 159.743 252.576 160.195C238.103 161.097 218.104 161.659 196.08 161.659C171.774 161.659 151.827 160.756 137.995 159.171C131.059 158.376 125.773 157.422 122.274 156.365C120.506 155.831 119.353 155.316 118.693 154.88ZM118.267 154.541C118.254 154.526 118.249 154.519 118.25 154.518C118.251 154.518 118.257 154.526 118.267 154.541Z" stroke="black" stroke-width="5"/>
<g filter="url(#filter0_d_341_5428)">
<path fill-rule="evenodd" clip-rule="evenodd" d="M294 82.0793V164.159H321.184C354.116 164.159 396.755 143.203 404.331 123.299C414.91 95.4925 409.776 49.1667 393.92 29.4155C383.038 15.8585 364.624 8.02813 335.988 4.77372L294 0V82.0793Z" fill="black"/>
<path d="M296.5 161.659V82.0793V2.80034L335.705 7.25772L335.706 7.25773C364.095 10.4841 381.702 18.1877 391.971 30.9805L391.971 30.9805C399.47 40.3225 404.634 56.2941 406.554 73.6119C408.469 90.8839 407.1 108.99 401.994 122.409C400.309 126.838 396.566 131.554 391.15 136.179C385.765 140.779 378.882 145.156 371.163 148.949C355.698 156.549 337.183 161.659 321.184 161.659H296.5Z" stroke="black" stroke-width="5"/>
</g>
<defs>
<filter id="filter0_d_341_5428" x="290" y="0" width="123.88" height="178.159" filterUnits="userSpaceOnUse" color-interpolation-filters="sRGB">
<feFlood flood-opacity="0" result="BackgroundImageFix"/>
<feColorMatrix in="SourceAlpha" type="matrix" values="0 0 0 0 0 0 0 0 0 0 0 0 0 0 0 0 0 0 127 0" result="hardAlpha"/>
<feOffset dy="10"/>
<feGaussianBlur stdDeviation="2"/>
<feComposite in2="hardAlpha" operator="out"/>
<feColorMatrix type="matrix" values="0 0 0 0 0 0 0 0 0 0 0 0 0 0 0 0 0 0 0.25 0"/>
<feBlend mode="normal" in2="BackgroundImageFix" result="effect1_dropShadow_341_5428"/>
<feBlend mode="normal" in="SourceGraphic" in2="effect1_dropShadow_341_5428" result="shape"/>
</filter>
</defs>
</svg>
