<svg width="60" height="24" viewBox="0 0 60 24" fill="none" xmlns="http://www.w3.org/2000/svg">
<path fill-rule="evenodd" clip-rule="evenodd" d="M0 12.1709V24H3.9129C7.39147 24 7.8258 23.5623 7.8258 20.057C7.8258 16.7974 8.35535 16.1139 10.8844 16.1139C14.6108 16.1139 18.2602 12.3233 18.2602 8.45257C18.2602 3.43439 13.7838 0.341731 6.5215 0.341731H0V12.1709ZM22.2135 10.775C19.3219 16.5713 16.9559 21.9181 16.9559 22.6567C16.9559 23.4716 21.5679 24 28.6946 24C35.1509 24 40.4333 23.6714 40.4333 23.2679C40.4333 21.8366 29.7511 1.65739 28.6216 0.952903C27.989 0.559913 25.1052 4.97875 22.2135 10.775ZM43.0419 12V24H47.02C51.8394 24 58.0792 20.9363 59.1878 18.0263C60.736 13.961 59.9848 7.18817 57.6644 4.30055C56.0719 2.31851 53.3772 1.17371 49.1865 0.697919L43.0419 0V12Z" fill="black"/>
</svg>
