<svg width="414" height="178" viewBox="0 0 414 178" fill="none" xmlns="http://www.w3.org/2000/svg">
<path d="M6.5 161.659V83.248V4.83742H48.5636C73.0652 4.83742 92.563 10.0657 105.859 19.2609C119.06 28.391 126.278 41.5051 126.278 57.8151C126.278 70.2853 120.386 82.7909 111.324 92.212C102.258 101.639 90.2724 107.718 78.3766 107.718C69.7449 107.718 63.3388 108.818 59.4696 113.811C57.5874 116.241 56.4923 119.365 55.8473 123.148C55.2021 126.933 54.9763 131.573 54.9763 137.188C54.9763 143.173 54.7875 147.663 54.1798 151.08C53.5757 154.476 52.6027 156.536 51.2457 157.905C49.8912 159.271 47.8566 160.248 44.4988 160.856C41.1175 161.468 36.6711 161.659 30.7382 161.659H6.5ZM339.825 7.25772L340.108 4.77372L339.825 7.25773C368.215 10.4841 385.822 18.1877 396.091 30.9805L398.04 29.4155C413.896 49.1667 419.03 95.4925 408.45 123.299L406.114 122.409C406.114 122.41 406.114 122.41 406.114 122.41C404.428 126.838 400.685 131.554 395.27 136.179C389.885 140.779 383.001 145.156 375.283 148.949C359.818 156.549 341.303 161.659 325.303 161.659H300.62V82.0793V2.80034L339.825 7.25772ZM122.693 154.88C122.563 154.794 122.469 154.723 122.401 154.667C122.422 154.542 122.451 154.388 122.492 154.203C122.596 153.735 122.759 153.133 122.988 152.39C123.445 150.905 124.132 148.965 125.035 146.611C126.838 141.908 129.458 135.666 132.706 128.319C139.199 113.631 148.164 94.6118 158.03 74.8157C167.881 55.0504 177.7 37.6717 185.57 25.599C189.514 19.5475 192.918 14.9088 195.553 11.9771C196.887 10.4935 197.916 9.56906 198.635 9.10047C198.649 9.09102 198.663 9.0819 198.677 9.07309C198.965 9.3951 199.325 9.83994 199.759 10.4186C200.666 11.6271 201.809 13.3046 203.162 15.41C205.864 19.6141 209.325 25.3987 213.282 32.2703C221.191 46.0062 231.024 63.9889 240.622 82.1389C250.22 100.289 259.571 118.582 266.518 132.938C269.993 140.12 272.855 146.293 274.843 150.959C275.838 153.296 276.601 155.223 277.11 156.694C277.267 157.146 277.395 157.544 277.498 157.888C276.6 158.124 275.306 158.374 273.601 158.624C269.631 159.208 263.822 159.743 256.576 160.195C242.103 161.097 222.104 161.659 200.08 161.659C175.774 161.659 155.827 160.756 141.995 159.171C135.059 158.376 129.773 157.422 126.274 156.365C124.506 155.831 123.353 155.316 122.693 154.88ZM122.267 154.541C122.254 154.526 122.249 154.519 122.25 154.518C122.251 154.518 122.257 154.526 122.267 154.541Z" stroke="black" stroke-width="5"/>
<g filter="url(#filter0_d_341_5422)">
<path fill-rule="evenodd" clip-rule="evenodd" d="M4 82.9106V163.821H30.7382C54.5084 163.821 57.4763 160.827 57.4763 136.851C57.4763 114.556 61.0949 109.881 78.3766 109.881C103.84 109.881 128.778 83.9534 128.778 57.4777C128.778 23.1536 98.1896 2 48.5636 2H4V82.9106Z" fill="black"/>
<path d="M30.7382 161.321H6.5V82.9106V4.5H48.5636C73.0652 4.5 92.563 9.72827 105.859 18.9235C119.06 28.0536 126.278 41.1677 126.278 57.4777C126.278 69.9479 120.386 82.4535 111.324 91.8746C102.258 101.301 90.2724 107.381 78.3766 107.381C69.7449 107.381 63.3388 108.48 59.4696 113.474C57.5874 115.903 56.4923 119.027 55.8473 122.811C55.2021 126.595 54.9763 131.236 54.9763 136.851C54.9763 142.836 54.7875 147.326 54.1798 150.742C53.5757 154.139 52.6027 156.198 51.2457 157.567C49.8912 158.933 47.8566 159.911 44.4988 160.519C41.1175 161.131 36.6711 161.321 30.7382 161.321Z" stroke="black" stroke-width="5"/>
</g>
<defs>
<filter id="filter0_d_341_5422" x="0" y="2" width="132.778" height="175.821" filterUnits="userSpaceOnUse" color-interpolation-filters="sRGB">
<feFlood flood-opacity="0" result="BackgroundImageFix"/>
<feColorMatrix in="SourceAlpha" type="matrix" values="0 0 0 0 0 0 0 0 0 0 0 0 0 0 0 0 0 0 127 0" result="hardAlpha"/>
<feOffset dy="10"/>
<feGaussianBlur stdDeviation="2"/>
<feComposite in2="hardAlpha" operator="out"/>
<feColorMatrix type="matrix" values="0 0 0 0 0 0 0 0 0 0 0 0 0 0 0 0 0 0 0.25 0"/>
<feBlend mode="normal" in2="BackgroundImageFix" result="effect1_dropShadow_341_5422"/>
<feBlend mode="normal" in="SourceGraphic" in2="effect1_dropShadow_341_5422" result="shape"/>
</filter>
</defs>
</svg>
